<svg width="50" height="50" viewBox="0 0 50 50" fill="none" xmlns="http://www.w3.org/2000/svg">
<path d="M9.0376 18.0752C14.0209 18.0752 18.0752 14.0209 18.0752 9.0376C18.0752 4.0543 14.0209 0 9.0376 0C4.0543 0 0 4.0543 0 9.0376C0 14.0209 4.0543 18.0752 9.0376 18.0752ZM9.0376 1.95312C12.9439 1.95312 16.1221 5.13125 16.1221 9.0376C16.1221 12.9439 12.9439 16.1221 9.0376 16.1221C5.13125 16.1221 1.95312 12.9439 1.95312 9.0376C1.95312 5.13125 5.13125 1.95312 9.0376 1.95312Z" fill="#0B1B28"/>
<path d="M9.81328 11.1842C10.0039 11.3741 10.2533 11.469 10.5027 11.469C10.7531 11.469 11.0037 11.3733 11.1944 11.1819C11.5751 10.7999 11.5741 10.1815 11.1922 9.80078L10.0195 8.63203V4.29688C10.0195 3.75762 9.58223 3.32031 9.04297 3.32031C8.50371 3.32031 8.06641 3.75762 8.06641 4.29688V9.0376C8.06641 9.29717 8.16982 9.54609 8.35352 9.7293L9.81328 11.1842Z" fill="#0B1B28"/>
<path d="M49.0234 32.422H43.013C42.1868 31.2468 40.9454 30.4144 39.5295 30.1048L35.2361 29.166C36.9931 27.9811 38.1509 25.9725 38.1509 23.6984V21.314V20.2107V19.9625C38.1509 16.3285 35.1944 13.3721 31.5604 13.3721C27.9265 13.3721 24.97 16.3285 24.97 19.9625V20.2107V21.314V23.6984C24.97 25.9695 26.1248 27.9761 27.878 29.1616L23.5874 30.1029C23.4041 30.1432 23.2239 30.1925 23.0469 30.2496V22.1681C23.0469 21.6288 22.6096 21.1915 22.0703 21.1915H15.4297C14.8904 21.1915 14.4531 21.6288 14.4531 22.1681C14.4531 22.7073 14.8904 23.1446 15.4297 23.1446H21.0938V36.8165H14.4531V31.9337C14.4531 30.3183 13.1389 29.004 11.5234 29.004C9.90801 29.004 8.59375 30.3183 8.59375 31.9337V36.8165H1.95312V23.1446H15.4297C15.9689 23.1446 14.4531 22.7073 14.4531 22.1681C14.4531 21.6288 15.9689 21.1915 15.4297 21.1915H0.976562C0.437305 21.1915 0 21.6288 0 22.1681V37.7931C0 38.3323 0.437305 38.7696 0.976562 38.7696H8.59375V40.6251H8.49609C6.82676 40.6251 5.46875 41.9831 5.46875 43.6524V44.1407H0.976562C0.437305 44.1407 0 44.578 0 45.1173V49.0235C0 49.5628 0.437305 50.0001 0.976562 50.0001H49.0234C49.5627 50.0001 50 49.5628 50 49.0235V45.1173V41.211V37.3048V33.3985C50 32.8593 49.5627 32.422 49.0234 32.422ZM43.0839 44.1407H37.5V42.1876H48.0469V44.1407H43.0839ZM48.0469 40.2345H37.5V38.2813H48.0469V40.2345ZM48.0469 36.3282H37.5V34.3751H42.4682C42.4711 34.3751 42.474 34.3757 42.4769 34.3757C42.4799 34.3757 42.483 34.3751 42.486 34.3751H48.0469V36.3282ZM26.923 19.9626C26.923 17.4056 29.0034 15.3253 31.5604 15.3253C33.9952 15.3253 35.9978 17.2114 36.1836 19.5994L33.9135 18.2657C33.5022 18.024 32.9767 18.1149 32.6703 18.4805C31.6814 19.6606 30.2311 20.3376 28.6914 20.3376H26.9231V20.2109L26.923 19.9626ZM26.923 22.2906H28.6914C30.5298 22.2906 32.2754 21.5896 33.5942 20.3434L36.1978 21.8729V23.6985C36.1978 26.2556 34.1174 28.3358 31.5604 28.3358C29.0035 28.3358 26.9231 26.2555 26.9231 23.6985L26.923 22.2906ZM33.0902 30.1078L31.5458 34.2381L29.9985 30.1004C30.4995 30.2227 31.0223 30.289 31.5604 30.289C32.0871 30.289 32.5989 30.2251 33.0902 30.1078ZM22.0703 38.7696C22.6096 38.7696 23.0469 38.3323 23.0469 37.7931V32.3611C23.3481 32.2023 23.6693 32.0846 24.0059 32.0107L28.2773 31.0736L30.6312 37.3683C30.7738 37.7498 31.1384 38.0027 31.5458 38.0027C31.9532 38.0027 32.3178 37.7498 32.4604 37.3682L34.8144 31.0731L39.1123 32.0129C39.4896 32.0953 39.8476 32.235 40.177 32.4219H36.5234C35.9842 32.4219 35.5469 32.8592 35.5469 33.3984V37.3047V41.2109V44.1406H21.0136V38.7695L22.0703 38.7696ZM19.0604 38.7696V44.1407H17.5781V43.6524C17.5781 41.9831 16.2201 40.6251 14.5508 40.6251H14.4531V38.7696H19.0604ZM10.5469 31.9337C10.5469 31.3952 10.985 30.9571 11.5234 30.9571C12.0619 30.9571 12.5 31.3952 12.5 31.9337V40.6251H10.5469V31.9337ZM7.42188 43.6524C7.42188 43.0602 7.90381 42.5782 8.49609 42.5782H9.57031H13.4766H14.5508C15.1431 42.5782 15.625 43.0602 15.625 43.6524V44.1407H7.42188V43.6524ZM48.0469 48.047H1.95312V46.0938H48.0469V48.047Z" fill="#0B1B28"/>
</svg>
