<svg width="51" height="50" viewBox="0 0 51 50" fill="none" xmlns="http://www.w3.org/2000/svg">
<path d="M29.8412 20.9678H30.6477V29.8388C30.6477 32.0621 32.4566 33.871 34.6799 33.871H42.7445C44.9678 33.871 46.7767 32.0621 46.7767 29.8388V20.9678H47.5832C48.917 20.9678 50.0025 19.8823 50.0025 18.5484C50.0025 17.2146 48.917 16.1291 47.5832 16.1291H46.7767V12.7654C46.7767 11.0791 46.1203 9.4936 44.9275 8.30085C43.7348 7.10811 42.1501 6.45166 40.463 6.45166H36.9606C35.2743 6.45166 33.6888 7.10811 32.4961 8.30085C31.3033 9.4936 30.6477 11.0783 30.6477 12.7654V16.1291H29.8412C28.5074 16.1291 27.4219 17.2146 27.4219 18.5484C27.4219 19.8823 28.5074 20.9678 29.8412 20.9678ZM32.313 12.0968H33.8735C35.6525 12.0968 37.0993 10.65 37.0993 8.87101V8.06456H40.3251V8.87101C40.3251 10.65 41.7719 12.0968 43.5509 12.0968H45.1114C45.1428 12.317 45.1638 12.5388 45.1638 12.7654V17.6525C43.6856 16.6613 41.9485 16.1291 40.1291 16.1291H37.2945C35.4751 16.1291 33.738 16.6613 32.2598 17.6525V12.7654C32.2606 12.5388 32.2816 12.317 32.313 12.0968ZM32.2606 19.7105C33.6388 18.4436 35.4114 17.742 37.2953 17.742H40.1299C42.0138 17.742 43.7864 18.4436 45.1646 19.7105V26.2565C43.7856 27.5242 42.013 28.2259 40.1291 28.2259H37.2945C35.4106 28.2259 33.638 27.5242 32.2598 26.2573V19.7105H32.2606ZM42.7445 32.2581H34.6799C33.3461 32.2581 32.2606 31.1726 32.2606 29.8388V28.3154C33.7388 29.3057 35.4759 29.8388 37.2953 29.8388H40.1299C41.9493 29.8388 43.6864 29.3057 45.1646 28.3154V29.8388C45.1638 31.1726 44.0783 32.2581 42.7445 32.2581ZM47.5832 17.742C48.0275 17.742 48.3896 18.1041 48.3896 18.5484C48.3896 18.9928 48.0275 19.3549 47.5832 19.3549H46.7767V17.742H47.5832ZM44.5719 10.4839H43.5509C42.6614 10.4839 41.938 9.76053 41.938 8.87101V8.30408C42.6267 8.53069 43.259 8.91376 43.7872 9.44118C44.1009 9.75489 44.3614 10.1065 44.5719 10.4839ZM35.4864 8.30408V8.87101C35.4864 9.76053 34.763 10.4839 33.8735 10.4839H32.8525C33.063 10.1065 33.3235 9.75489 33.6372 9.44118C34.1654 8.91376 34.7977 8.53069 35.4864 8.30408ZM29.8412 17.742H30.6477V19.3549H29.8412C29.3969 19.3549 29.0348 18.9928 29.0348 18.5484C29.0348 18.1041 29.3969 17.742 29.8412 17.742Z" fill="#0B1B28"/>
<path d="M2.41935 20.9678H3.22581V29.8388C3.22581 32.0621 5.03468 33.871 7.25807 33.871H15.3226C17.546 33.871 19.3548 32.0621 19.3548 29.8388V20.9678H20.1613C21.4952 20.9678 22.5806 19.8823 22.5806 18.5484C22.5806 17.2146 21.4952 16.1291 20.1613 16.1291H19.3548V12.7654C19.3548 11.0791 18.6984 9.4936 17.5056 8.30085C16.3129 7.10811 14.7282 6.45166 13.0411 6.45166H9.53871C7.85242 6.45166 6.26694 7.10811 5.07419 8.30085C3.88145 9.4936 3.22581 11.0783 3.22581 12.7654V16.1291H2.41935C1.08548 16.1291 0 17.2146 0 18.5484C0 19.8823 1.08548 20.9678 2.41935 20.9678ZM4.89113 12.0968H6.45161C8.23065 12.0968 9.67742 10.65 9.67742 8.87101V8.06456H12.9032V8.87101C12.9032 10.65 14.35 12.0968 16.129 12.0968H17.6895C17.721 12.317 17.7419 12.5388 17.7419 12.7654V17.6525C16.2637 16.6613 14.5266 16.1291 12.7073 16.1291H9.87258C8.05323 16.1291 6.31613 16.6613 4.8379 17.6525V12.7654C4.83871 12.5388 4.85968 12.317 4.89113 12.0968ZM4.83871 19.7105C6.21694 18.4436 7.98952 17.742 9.87339 17.742H12.7081C14.5919 17.742 16.3645 18.4436 17.7427 19.7105V26.2565C16.3637 27.5242 14.5911 28.2259 12.7073 28.2259H9.87258C7.98952 28.2259 6.21694 27.5242 4.83871 26.2573V19.7105ZM15.3226 32.2581H7.25807C5.92419 32.2581 4.83871 31.1726 4.83871 29.8388V28.3154C6.31694 29.3057 8.05403 29.8388 9.87339 29.8388H12.7081C14.5274 29.8388 16.2645 29.3057 17.7427 28.3154V29.8388C17.7419 31.1726 16.6565 32.2581 15.3226 32.2581ZM20.1613 17.742C20.6056 17.742 20.9677 18.1041 20.9677 18.5484C20.9677 18.9928 20.6056 19.3549 20.1613 19.3549H19.3548V17.742H20.1613ZM17.15 10.4839H16.129C15.2395 10.4839 14.5161 9.76053 14.5161 8.87101V8.30408C15.2048 8.53069 15.8371 8.91376 16.3653 9.44118C16.679 9.75489 16.9395 10.1065 17.15 10.4839ZM8.06452 8.30408V8.87101C8.06452 9.76053 7.34113 10.4839 6.45161 10.4839H5.43065C5.64113 10.1065 5.90161 9.75489 6.21532 9.44118C6.74355 8.91376 7.37581 8.53069 8.06452 8.30408ZM2.41935 17.742H3.22581V19.3549H2.41935C1.975 19.3549 1.6129 18.9928 1.6129 18.5484C1.6129 18.1041 1.975 17.742 2.41935 17.742Z" fill="#0B1B28"/>
<path d="M2.41973 4.83871H20.1617C20.6068 4.83871 20.9681 4.47742 20.9681 4.03226V0.806452C20.9681 0.36129 20.6068 0 20.1617 0H2.41973C1.97457 0 1.61328 0.36129 1.61328 0.806452V4.03226C1.61328 4.47742 1.97457 4.83871 2.41973 4.83871ZM3.22618 1.6129H19.3552V3.22581H3.22618V1.6129Z" fill="#0B1B28"/>
<path d="M29.8387 4.83871H47.5806C48.0258 4.83871 48.3871 4.47742 48.3871 4.03226V0.806452C48.3871 0.36129 48.0258 0 47.5806 0H29.8387C29.3935 0 29.0322 0.36129 29.0322 0.806452V4.03226C29.0322 4.47742 29.3935 4.83871 29.8387 4.83871ZM30.6451 1.6129H46.7742V3.22581H30.6451V1.6129Z" fill="#0B1B28"/>
<path d="M0 49.1937C0 48.7483 0.361061 48.3872 0.806452 48.3872H49.1936C49.6389 48.3872 50 48.7483 50 49.1937C50 49.639 49.6389 50.0001 49.1936 50.0001H0.806451C0.36106 50.0001 0 49.639 0 49.1937Z" fill="#0B1B28"/>
<path d="M4.03223 42.742C4.03223 42.2966 4.39329 41.9355 4.83868 41.9355H6.45158C6.89697 41.9355 7.25803 42.2966 7.25803 42.742C7.25803 43.1874 6.89697 43.5485 6.45158 43.5485H4.83868C4.39329 43.5485 4.03223 43.1874 4.03223 42.742Z" fill="#0B1B28"/>
<path d="M10.4844 42.742C10.4844 42.2966 10.8454 41.9355 11.2908 41.9355H12.9037C13.3491 41.9355 13.7102 42.2966 13.7102 42.742C13.7102 43.1874 13.3491 43.5485 12.9037 43.5485H11.2908C10.8454 43.5485 10.4844 43.1874 10.4844 42.742Z" fill="#0B1B28"/>
<path d="M16.9375 42.742C16.9375 42.2966 17.2986 41.9355 17.744 41.9355H19.3569C19.8022 41.9355 20.1633 42.2966 20.1633 42.742C20.1633 43.1874 19.8022 43.5485 19.3569 43.5485H17.744C17.2986 43.5485 16.9375 43.1874 16.9375 42.742Z" fill="#0B1B28"/>
<path d="M23.3867 42.742C23.3867 42.2966 23.7478 41.9355 24.1932 41.9355H25.8061C26.2515 41.9355 26.6125 42.2966 26.6125 42.742C26.6125 43.1874 26.2515 43.5485 25.8061 43.5485H24.1932C23.7478 43.5485 23.3867 43.1874 23.3867 42.742Z" fill="#0B1B28"/>
<path d="M29.8359 42.742C29.8359 42.2966 30.197 41.9355 30.6424 41.9355H32.2553C32.7007 41.9355 33.0617 42.2966 33.0617 42.742C33.0617 43.1874 32.7007 43.5485 32.2553 43.5485H30.6424C30.197 43.5485 29.8359 43.1874 29.8359 42.742Z" fill="#0B1B28"/>
<path d="M36.29 42.742C36.29 42.2966 36.6511 41.9355 37.0965 41.9355H38.7094C39.1548 41.9355 39.5158 42.2966 39.5158 42.742C39.5158 43.1874 39.1548 43.5485 38.7094 43.5485H37.0965C36.6511 43.5485 36.29 43.1874 36.29 42.742Z" fill="#0B1B28"/>
<path d="M42.7422 42.742C42.7422 42.2966 43.1032 41.9355 43.5486 41.9355H45.1615C45.6069 41.9355 45.968 42.2966 45.968 42.742C45.968 43.1874 45.6069 43.5485 45.1615 43.5485H43.5486C43.1032 43.5485 42.7422 43.1874 42.7422 42.742Z" fill="#0B1B28"/>
<path d="M25.8065 0.806453C25.8065 0.361062 25.4454 0 25 0C24.5546 0 24.1935 0.361061 24.1935 0.806452V35.4839H0.806452C0.361061 35.4839 0 35.8449 0 36.2903C0 36.7357 0.361061 37.0968 0.806452 37.0968H49.1936C49.6389 37.0968 50 36.7357 50 36.2903C50 35.8449 49.6389 35.4839 49.1935 35.4839H25.8065V0.806453Z" fill="#0B1B28"/>
</svg>
