<svg width="50" height="50" viewBox="0 0 50 50" fill="none" xmlns="http://www.w3.org/2000/svg">
<path d="M48.785 13.7767C49.5632 12.9948 50.0001 11.9365 50 10.8333C49.9978 10.131 49.7954 9.44391 49.4167 8.8525L45.2633 2.32333C44.3471 0.880926 42.7588 0.00509148 41.05 0H8.95C7.24282 0.00472479 5.65568 0.878864 4.73917 2.31917L0.583333 8.85333C0.204449 9.44438 0.00208234 10.1313 0 10.8333C0.000633158 11.9404 0.440618 13.002 1.22333 13.785C1.59281 14.147 2.02552 14.4382 2.5 14.6442V31.6667C1.2838 31.6644 0.243266 32.5396 0.0371772 33.7382C-0.168911 34.9368 0.519544 36.1093 1.66667 36.5133V45.1533C0.519544 45.5574 -0.168911 46.7299 0.0371772 47.9285C0.243266 49.1271 1.2838 50.0023 2.5 50H47.5C48.7162 50.0023 49.7567 49.1271 49.9628 47.9285C50.1689 46.7299 49.4805 45.5574 48.3333 45.1533V36.5133C49.4805 36.1093 50.1689 34.9368 49.9628 33.7382C49.7567 32.5396 48.7162 31.6644 47.5 31.6667V14.6433C47.9776 14.4352 48.4131 14.1415 48.785 13.7767ZM47.6067 12.5983C47.136 13.0682 46.4984 13.3324 45.8333 13.3333H43.3333C41.9526 13.3333 40.8333 12.214 40.8333 10.8333H48.3333C48.3332 11.4944 48.072 12.1288 47.6067 12.5983ZM39.2775 31.6667L39.9933 25.9367C40.023 25.6995 39.9494 25.4611 39.7912 25.2819C39.6331 25.1027 39.4056 25.0001 39.1667 25H34.1667C33.9277 25.0001 33.7002 25.1027 33.5421 25.2819C33.384 25.4611 33.3104 25.6995 33.34 25.9367L34.0558 31.6667H27.5V28.3333C27.5 27.4129 26.7538 26.6667 25.8333 26.6667H16.6667V23.3333H17.5C18.4205 23.3333 19.1667 22.5871 19.1667 21.6667V20C19.1667 19.0795 18.4205 18.3333 17.5 18.3333H10.8333C9.91286 18.3333 9.16667 19.0795 9.16667 20V21.6667C9.16667 22.5871 9.91286 23.3333 10.8333 23.3333H11.6667V26.6667H10.8333C9.91286 26.6667 9.16667 27.4129 9.16667 28.3333V31.6667H7.5V14.9167C8.50292 14.7066 9.39308 14.1339 10 13.3083C10.7801 14.3688 12.0169 14.9965 13.3333 15H16.6667C17.9833 14.9963 19.2201 14.3683 20 13.3075C20.7799 14.3683 22.0167 14.9963 23.3333 15H26.6667C27.9833 14.9963 29.2201 14.3683 30 13.3075C30.7799 14.3683 32.0167 14.9963 33.3333 15H36.6667C37.9833 14.9963 39.2201 14.3683 40 13.3075C40.6069 14.1331 41.4971 14.7058 42.5 14.9158V31.6667H39.2775ZM35.1108 26.6667H38.2225L37.5975 31.6667H35.7358L35.1108 26.6667ZM15.8333 21.6667H10.8333V20H17.5V21.6667H15.8333ZM13.3333 23.3333H15V26.6667H13.3333V23.3333ZM12.5 28.3333H25.8333V31.6667H10.8333V28.3333H12.5ZM39.1667 10.8333C39.1667 12.214 38.0474 13.3333 36.6667 13.3333H33.3333C31.9526 13.3333 30.8333 12.214 30.8333 10.8333H39.1667ZM29.1667 10.8333C29.1667 12.214 28.0474 13.3333 26.6667 13.3333H23.3333C21.9526 13.3333 20.8333 12.214 20.8333 10.8333H29.1667ZM10.8333 10.8333H19.1667C19.1667 12.214 18.0474 13.3333 16.6667 13.3333H13.3333C11.9526 13.3333 10.8333 12.214 10.8333 10.8333ZM6.1475 3.21C6.7576 2.25157 7.81386 1.66989 8.95 1.66667H41.05C42.1878 1.66994 43.2454 2.2534 43.855 3.21417L47.6442 9.16667H40.5608L39.1075 5.52333C38.9363 5.09577 38.4509 4.88796 38.0233 5.05917C37.5958 5.23038 37.388 5.71577 37.5592 6.14333L38.7692 9.16667H30.8333V7.5C30.8333 7.03976 30.4602 6.66667 30 6.66667C29.5398 6.66667 29.1667 7.03976 29.1667 7.5V9.16667H20.8333V7.5C20.8333 7.03976 20.4602 6.66667 20 6.66667C19.5398 6.66667 19.1667 7.03976 19.1667 7.5V9.16667H11.2308L12.4408 6.14333C12.5516 5.86675 12.5064 5.55209 12.3222 5.31789C12.1381 5.08368 11.843 4.96551 11.5481 5.00789C11.2531 5.05026 11.0033 5.24675 10.8925 5.52333L9.43583 9.16667H2.3525L6.1475 3.21ZM1.66666 10.8333H9.16667C9.16667 12.214 8.04738 13.3333 6.66667 13.3333H4.16667C3.50322 13.3347 2.86656 13.0717 2.39743 12.6026C1.9283 12.1334 1.66534 11.4968 1.66666 10.8333ZM4.16667 15H5.83333V31.6667H4.16667V15ZM46.6667 45H3.33333V36.6667H46.6667V45ZM47.5 48.3333H2.5C2.03976 48.3333 1.66667 47.9602 1.66667 47.5C1.66667 47.0398 2.03976 46.6667 2.5 46.6667H47.5C47.9602 46.6667 48.3333 47.0398 48.3333 47.5C48.3333 47.9602 47.9602 48.3333 47.5 48.3333ZM48.3333 34.1667C48.3333 34.6269 47.9602 35 47.5 35H2.5C2.03976 35 1.66667 34.6269 1.66667 34.1667C1.66667 33.7064 2.03976 33.3333 2.5 33.3333H47.5C47.9602 33.3333 48.3333 33.7064 48.3333 34.1667ZM45.8333 31.6667H44.1667V15H45.8333V31.6667Z" fill="#0B1B28"/>
</svg>
