<svg width="50" height="50" viewBox="0 0 50 50" fill="none" xmlns="http://www.w3.org/2000/svg">
<path d="M49.5884 14.2813L25.4217 0.114558C25.1675 -0.0337816 24.855 -0.0387621 24.5976 0.103718L0.430859 13.4371C0.165039 13.5829 0 13.8629 0 14.1662V49.1662C0 49.6271 0.37334 49.9995 0.833301 49.9995H5C5.45996 49.9995 5.8333 49.6271 5.8333 49.1662V19.9996H44.1666V49.1663C44.1666 49.6272 44.5391 49.9996 44.9999 49.9996H49.1666C49.6274 49.9996 49.9999 49.6272 49.9999 49.1663V14.9996C50 14.7037 49.8434 14.4304 49.5884 14.2813ZM48.3333 48.3329H45.8333V19.1662C45.8333 18.7063 45.4608 18.3329 45 18.3329H5C4.54004 18.3329 4.1667 18.7063 4.1667 19.1662V48.3329H1.6667V14.6579L24.9875 1.79122L48.3333 15.4771V48.3329Z" fill="#0B1B28"/>
<path d="M41.6653 38.333H31.6653C31.2045 38.333 30.832 38.7055 30.832 39.1663V49.1663C30.832 49.6271 31.2045 49.9996 31.6653 49.9996H41.6653C42.1262 49.9996 42.4986 49.6271 42.4986 49.1663V39.1663C42.4986 38.7055 42.1262 38.333 41.6653 38.333ZM40.8319 48.333H32.4986V39.9997H40.8319V48.333Z" fill="#0B1B28"/>
<path d="M37.4975 39.1663V41.6663H35.8308V39.1663H34.1641V42.4996C34.1641 42.9604 34.5365 43.3329 34.9974 43.3329H38.3307C38.7915 43.3329 39.164 42.9604 39.164 42.4996V39.1663H37.4975Z" fill="#0B1B28"/>
<path d="M31.6653 38.333H21.6653C21.2054 38.333 20.832 38.7055 20.832 39.1663V49.1663C20.832 49.6271 21.2054 49.9996 21.6653 49.9996H31.6653C32.1262 49.9996 32.4986 49.6271 32.4986 49.1663V39.1663C32.4986 38.7055 32.1262 38.333 31.6653 38.333ZM30.8319 48.333H22.4986V39.9997H30.8319V48.333Z" fill="#0B1B28"/>
<path d="M27.5014 39.1663V41.6663H25.8347V39.1663H24.168V42.4996C24.168 42.9604 24.5413 43.3329 25.0013 43.3329H28.3346C28.7954 43.3329 29.1679 42.9604 29.1679 42.4996V39.1663H27.5014Z" fill="#0B1B28"/>
<path d="M41.6653 28.333H31.6653C31.2045 28.333 30.832 28.7055 30.832 29.1663V39.1663C30.832 39.6271 31.2045 39.9996 31.6653 39.9996H41.6653C42.1262 39.9996 42.4986 39.6271 42.4986 39.1663V29.1663C42.4986 28.7055 42.1262 28.333 41.6653 28.333ZM40.8319 38.333H32.4986V29.9997H40.8319V38.333Z" fill="#0B1B28"/>
<path d="M37.4975 29.1663V31.6663H35.8308V29.1663H34.1641V32.4996C34.1641 32.9604 34.5365 33.3329 34.9974 33.3329H38.3307C38.7915 33.3329 39.164 32.9604 39.164 32.4996V29.1663H37.4975Z" fill="#0B1B28"/>
<path d="M45 24.9995H5V26.6662H45V24.9995Z" fill="#0B1B28"/>
<path d="M45 21.6663H5V23.333H45V21.6663Z" fill="#0B1B28"/>
<path d="M29.1666 11.6663H20.8333C20.3733 11.6663 20 12.0396 20 12.4996V15.8329C20 16.2928 20.3733 16.6662 20.8333 16.6662H29.1666C29.6274 16.6662 29.9999 16.2928 29.9999 15.8329V12.4996C29.9999 12.0396 29.6274 11.6663 29.1666 11.6663ZM28.3332 14.9997H21.6665V13.333H28.3332V14.9997Z" fill="#0B1B28"/>
</svg>
