<svg width="49" height="42" viewBox="0 0 49 42" fill="none" xmlns="http://www.w3.org/2000/svg">
<path fill-rule="evenodd" clip-rule="evenodd" d="M15.9253 0.148081C15.6554 0.24146 15.28 0.440436 15.0911 0.590362C14.5288 1.03672 5.46587 11.9971 5.1921 12.5619C4.70239 13.5721 4.94151 14.8237 5.77275 15.6013C6.12347 15.9294 29.4145 32.0723 30.5299 32.7604C31.0825 33.1013 31.7027 33.1186 32.1788 32.8062C32.3604 32.687 35.6385 30.1683 39.4633 27.2093C43.7818 23.8682 46.4734 21.7247 46.5648 21.5538C46.765 21.1794 46.7503 20.5449 46.5333 20.2009C46.4183 20.0185 41.4646 16.5041 32.51 10.2521C24.8951 4.93535 18.4463 0.464961 18.1794 0.317904C17.5443 -0.031923 16.6426 -0.0998525 15.9253 0.148081ZM36.7667 19.7212C37.1417 19.9634 37.4267 20.4521 37.4267 20.853C37.4267 21.254 37.1417 21.7427 36.7667 21.9849C36.085 22.4251 35.0942 22.1672 34.723 21.4527C34.2519 20.5462 34.928 19.5111 35.9911 19.5111C36.2999 19.5111 36.5436 19.5771 36.7667 19.7212ZM10.7688 23.788C9.94255 24.9171 9.8431 25.3075 10.2047 26.0023C10.2747 26.1367 10.617 26.4433 10.9654 26.6838C11.3139 26.9241 11.5629 27.152 11.5188 27.19C10.4344 28.1256 9.01626 28.8632 7.6642 29.1948C6.91049 29.3796 6.40987 29.4292 4.81085 29.4772L2.87163 29.5356V27.8513C2.87163 26.346 2.85115 26.1283 2.67895 25.8019C2.46223 25.3913 1.91078 25.0639 1.43582 25.0639C0.960848 25.0639 0.409399 25.3913 0.192687 25.8019C0.00430745 26.1588 0 26.3333 0 33.532C0 40.7306 0.00430745 40.9051 0.192687 41.262C0.409399 41.6727 0.960848 42 1.43582 42C1.91078 42 2.46223 41.6727 2.67895 41.262C2.84876 40.9401 2.87163 40.7176 2.87163 39.3836V37.8705L5.09715 37.7639C6.76854 37.6838 7.60868 37.5994 8.47132 37.4249C12.0596 36.699 15.0196 35.1806 17.7057 32.6879L18.6259 31.834L19.4834 32.4053C20.2633 32.9251 20.3854 32.9767 20.8363 32.9767C21.4739 32.9767 21.7109 32.8065 22.4369 31.8273C22.9882 31.0839 22.9972 31.0619 22.8198 30.9003C22.5802 30.682 11.6259 23.1308 11.459 23.0689C11.3778 23.0388 11.1222 23.3051 10.7688 23.788ZM42.3924 28.4954C39.4246 30.7898 36.9645 32.6966 36.9258 32.7327C36.8395 32.8129 40.0285 35.0421 40.4164 35.1728C40.7482 35.2847 41.2864 35.214 41.5958 35.0181C41.877 34.8399 48.6063 26.7984 48.8383 26.3632C49.1736 25.7345 48.9791 25.06 48.3322 24.6069C48.1096 24.4511 47.8963 24.3235 47.8581 24.3235C47.8199 24.3235 45.3603 26.2009 42.3924 28.4954Z" fill="#5082F4"/>
</svg>
