<svg width="9" height="11" viewBox="0 0 9 11" fill="none" xmlns="http://www.w3.org/2000/svg">
<path d="M5.29893 10.7781C8.42057 6.25262 9 5.78817 9 4.125C9 1.84682 7.15318 0 4.875 0C2.59682 0 0.750002 1.84682 0.750002 4.125C0.750002 5.78817 1.32944 6.25262 4.45107 10.7781C4.65593 11.074 5.0941 11.074 5.29893 10.7781Z" fill="#474B59"/>
<path d="M4.875 5.84375C3.92576 5.84375 3.15625 5.07424 3.15625 4.125C3.15625 3.17576 3.92576 2.40625 4.875 2.40625C5.82424 2.40625 6.59375 3.17576 6.59375 4.125C6.59375 5.07424 5.82424 5.84375 4.875 5.84375Z" fill="white"/>
<path d="M4.875 5.84375C3.92576 5.84375 3.15625 5.07424 3.15625 4.125C3.15625 3.17576 3.92576 2.40625 4.875 2.40625C5.82424 2.40625 6.59375 3.17576 6.59375 4.125C6.59375 5.07424 5.82424 5.84375 4.875 5.84375Z" fill="white"/>
</svg>
