<svg width="11" height="11" viewBox="0 0 11 11" fill="none" xmlns="http://www.w3.org/2000/svg">
<path fill-rule="evenodd" clip-rule="evenodd" d="M10.5937 7.54776L8.26504 6.54874C8.13121 6.49167 7.9825 6.47946 7.84115 6.51392C7.6998 6.54839 7.5734 6.62768 7.48086 6.73995L6.5334 7.89796C5.04314 7.165 3.83745 5.95931 3.1045 4.46905L4.2625 3.52159C4.37475 3.42909 4.45404 3.30273 4.48851 3.16142C4.52298 3.0201 4.51077 2.87143 4.45372 2.73763L3.45469 0.406573C3.39222 0.262023 3.28105 0.14395 3.14052 0.0728991C2.99999 0.00184848 2.83899 -0.017682 2.68555 0.017706L0.519926 0.518292C0.371893 0.551774 0.239702 0.634734 0.145177 0.753477C0.0506513 0.872219 -0.000557407 1.01965 4.57672e-06 1.17142C4.57672e-06 6.61319 4.41075 11.0003 9.82889 11.0003C9.98118 11.0006 10.129 10.9491 10.2482 10.8542C10.3673 10.7593 10.4506 10.6267 10.4844 10.4782L10.9826 8.31476C11.018 8.16161 10.9984 8.0009 10.9273 7.86071C10.8562 7.72053 10.7382 7.60976 10.5937 7.54776Z" fill="#474B59"/>
</svg>
