<svg width="11" height="11" viewBox="0 0 11 11" fill="none" xmlns="http://www.w3.org/2000/svg">
<g clip-path="url(#clip0_9_265)">
<path d="M5.5 0.171875C2.55664 0.171875 0.171875 2.55664 0.171875 5.5C0.171875 8.44336 2.55664 10.8281 5.5 10.8281C8.44336 10.8281 10.8281 8.44336 10.8281 5.5C10.8281 2.55664 8.44336 0.171875 5.5 0.171875Z" fill="#474B59"/>
<path d="M6.94355 7.39707L5.19902 6.12949C5.13242 6.08008 5.09375 6.00273 5.09375 5.92109V2.49219C5.09375 2.35039 5.20977 2.23438 5.35156 2.23438H5.65234C5.79414 2.23438 5.91016 2.35039 5.91016 2.49219V5.63535L7.4248 6.7375C7.54082 6.82129 7.56445 6.98242 7.48066 7.09844L7.30449 7.34121C7.2207 7.45508 7.05957 7.48086 6.94355 7.39707Z" fill="white"/>
</g>
<defs>
<clipPath id="clip0_9_265">
<rect width="11" height="11" fill="white"/>
</clipPath>
</defs>
</svg>
